<svg width="328" height="181" viewBox="0 0 328 181" fill="none" xmlns="http://www.w3.org/2000/svg">
<g clip-path="url(#clip0_18_103)">
<path d="M0.340057 75.8089V2.47241H18.1428V75.8089H0.340057Z" fill="#161302"/>
<path d="M85.8001 74.5166C81.0221 76.6931 75.53 77.7813 69.3236 77.7813C63.6614 77.7813 58.4243 76.8291 53.6293 74.9757C48.8173 73.1053 44.6684 70.4698 41.1317 67.0521C37.6289 63.6343 34.8574 59.5365 32.8509 54.7755C30.8445 49.9975 29.8583 44.7603 29.8583 39.0301C29.8583 33.2999 30.8615 27.8418 32.902 23.0808C34.9424 18.3028 37.765 14.2559 41.3527 10.9062C44.9405 7.5565 49.1574 4.98895 53.9864 3.18657C58.8324 1.4012 64.0355 0.483002 69.6297 0.483002C74.7988 0.483002 79.8999 1.4182 84.8989 3.23758C89.898 5.07397 93.9618 7.74354 97.0735 11.2633L85.069 23.2848C83.4026 21.0063 81.2262 19.323 78.5226 18.2177C75.836 17.1125 73.0814 16.5684 70.2418 16.5684C67.1472 16.5684 64.2906 17.1295 61.689 18.2688C59.0875 19.408 56.86 20.9893 55.0066 22.9958C53.1362 24.9852 51.6909 27.3657 50.6537 30.0692C49.6165 32.8068 49.1064 35.7825 49.1064 39.0301C49.1064 42.2778 49.6165 45.3895 50.6537 48.1441C51.6739 50.8986 53.1192 53.2621 54.9556 55.2176C56.775 57.19 58.9685 58.7203 61.536 59.8425C64.0865 60.9308 66.8751 61.4919 69.9188 61.4919C73.4385 61.4919 76.5332 60.7947 79.1347 59.4174C81.7703 58.0402 83.8787 56.2548 85.46 54.0443L97.7876 65.6408C94.557 69.3645 90.5441 72.3232 85.7831 74.4996L85.8001 74.5166Z" fill="#161302"/>
<path d="M151.655 75.8089V45.1514H123.055V75.8089H105.354V2.47241H123.055V30.2393H151.655V2.47241H169.373V75.8089H151.655Z" fill="#161302"/>
<path d="M75.3599 178.613H59.8696L47.0489 131.071H46.7769L33.9392 178.613H18.3809L0 108.337H16.8336L27.1037 155.08H27.3758L38.9042 108.337H55.2107L66.8411 155.08H67.1302L77.5534 108.337H93.8598L75.3599 178.613Z" fill="#161302"/>
<path d="M153.491 163.666C152.182 167.135 150.295 170.128 147.863 172.593C145.415 175.076 142.473 177.014 139.021 178.409C135.57 179.803 131.744 180.5 127.527 180.5C123.31 180.5 119.399 179.803 115.998 178.409C112.564 177.014 109.673 175.076 107.293 172.593C104.912 170.128 103.093 167.135 101.8 163.666C100.525 160.198 99.8791 156.355 99.8791 152.121V108.337H115.437V150.727C115.437 152.631 115.658 154.451 116.118 156.168C116.577 157.902 117.274 159.433 118.226 160.793C119.178 162.153 120.436 163.224 121.984 164.024C123.548 164.823 125.418 165.214 127.612 165.214C129.805 165.214 131.693 164.806 133.24 164.024C134.787 163.224 136.063 162.153 137.032 160.793C138.001 159.433 138.715 157.902 139.14 156.168C139.565 154.451 139.787 152.631 139.787 150.727V108.337H155.447V152.121C155.447 156.355 154.784 160.198 153.474 163.666H153.491Z" fill="#161302"/>
<path d="M202.785 178.613L188.723 150.727H183.384V178.613H168.097V108.337H192.804C195.915 108.337 198.959 108.694 201.918 109.391C204.876 110.088 207.529 111.244 209.875 112.911C212.222 114.56 214.109 116.737 215.503 119.457C216.898 122.178 217.612 125.544 217.612 129.591C217.612 134.352 216.439 138.365 214.058 141.596C211.678 144.843 208.379 147.156 204.162 148.55L221.098 178.63H202.785V178.613ZM202.139 129.88C202.139 128.231 201.816 126.888 201.169 125.85C200.523 124.83 199.69 124.048 198.704 123.47C197.684 122.909 196.544 122.535 195.286 122.331C194.028 122.144 192.821 122.042 191.647 122.042H183.265V138.416H190.712C192.005 138.416 193.314 138.297 194.674 138.059C196.034 137.838 197.259 137.413 198.347 136.818C199.452 136.24 200.353 135.355 201.05 134.25C201.748 133.111 202.105 131.666 202.105 129.88H202.139Z" fill="#161302"/>
<path d="M263.029 126.599C261.685 124.745 259.934 123.266 257.774 122.178C255.615 121.089 253.507 120.545 251.5 120.545C250.48 120.545 249.409 120.647 248.337 120.834C247.283 121.021 246.314 121.413 245.464 121.974C244.597 122.535 243.882 123.266 243.304 124.15C242.726 125.034 242.437 126.191 242.437 127.568C242.437 128.758 242.658 129.744 243.117 130.543C243.576 131.343 244.257 132.023 245.124 132.635C246.025 133.23 247.062 133.774 248.286 134.284C249.511 134.777 250.871 135.287 252.418 135.815C254.612 136.614 256.907 137.481 259.271 138.45C261.651 139.402 263.828 140.678 265.783 142.259C267.739 143.857 269.337 145.83 270.629 148.176C271.921 150.523 272.551 153.464 272.551 156.967C272.551 160.997 271.87 164.5 270.493 167.441C269.116 170.383 267.279 172.814 264.95 174.719C262.637 176.64 259.985 178.068 256.992 179.004C254 179.922 250.905 180.398 247.742 180.398C243.1 180.398 238.628 179.514 234.292 177.762C229.957 175.994 226.369 173.512 223.495 170.264L233.748 158.939C235.347 161.065 237.421 162.833 240.023 164.262C242.607 165.69 245.192 166.387 247.759 166.387C248.916 166.387 250.055 166.251 251.16 165.996C252.248 165.724 253.217 165.299 254.034 164.704C254.85 164.109 255.513 163.309 256.006 162.306C256.499 161.32 256.737 160.13 256.737 158.735C256.737 157.341 256.431 156.304 255.836 155.352C255.224 154.433 254.357 153.583 253.234 152.835C252.112 152.087 250.701 151.373 249.018 150.744C247.351 150.115 245.447 149.434 243.287 148.703C241.213 147.972 239.189 147.105 237.2 146.119C235.211 145.116 233.442 143.857 231.878 142.293C230.331 140.746 229.072 138.858 228.12 136.631C227.185 134.42 226.709 131.717 226.709 128.537C226.709 124.643 227.44 121.293 228.919 118.522C230.382 115.75 232.303 113.472 234.684 111.669C237.047 109.884 239.751 108.592 242.726 107.742C245.719 106.925 248.746 106.5 251.806 106.5C255.462 106.5 259.203 107.249 263.012 108.694C266.82 110.156 270.17 112.299 273.044 115.138L263.063 126.565L263.029 126.599Z" fill="#161302"/>
<path d="M309.448 122.824V178.613H293.805V122.824H275.492V108.337H327.761V122.824H309.448Z" fill="#161302"/>
<path d="M320.314 26.0564C320.314 33.4019 317.151 40.0163 312.101 44.5903H312.135L284.912 71.813C282.192 74.5336 279.471 77.2542 276.75 77.2542C274.03 77.2542 271.309 74.5336 268.589 71.813L241.366 44.5903H241.4C236.35 40.0163 233.187 33.4019 233.187 26.0564C233.187 12.2325 244.393 1.0271 258.216 1.0271C265.562 1.0271 272.176 4.18977 276.75 9.23983C281.324 4.18977 287.939 1.0271 295.284 1.0271C309.108 1.0271 320.314 12.2325 320.314 26.0564Z" fill="#FFDB00"/>
</g>
<defs>
<clipPath id="clip0_18_103">
<rect width="327.761" height="180" fill="white" transform="translate(0 0.5)"/>
</clipPath>
</defs>
</svg>
