<svg width="57" height="56" viewBox="0 0 57 56" fill="none" xmlns="http://www.w3.org/2000/svg">
<circle cx="28.5" cy="28" r="28" fill="#FFDB00"/>
<path fill-rule="evenodd" clip-rule="evenodd" d="M20.7504 34.9044C20.6043 32.9113 20.5452 31.5026 20.5452 30.6539C20.5452 29.9757 20.6078 27.0748 20.7504 21.9548C20.7504 21.4574 20.2739 20.6087 19.3209 19.4052C16.9487 17.6452 15.7591 16.1287 15.7591 14.8696V14.5879C15.7591 14.3374 15.9261 13.7983 16.2669 12.9809C17.6965 12.0209 18.4061 11.3913 18.4061 11.0922C18.2878 10.8105 18.0826 10.5879 17.7904 10.4348H17.5887C16.6182 10.9496 15.8043 11.4226 15.1435 11.8435C12.5695 13.7079 11.2826 15.4087 11.2826 16.9496C11.2826 17.52 11.453 18.2713 11.7869 19.2174C13.6374 22.2713 14.6217 24.1635 14.74 24.887C14.5382 34.8418 14.333 39.8192 14.1313 39.8192C12.8339 40.4661 12.2009 41.0331 12.2009 41.5166V41.6139C14.9452 41.6139 18.5069 42.9705 22.8861 45.6731L23.3974 45.3913C24.1104 44.8244 24.82 44.3792 25.5261 44.0452V36.6122L20.7504 34.9009V34.9044ZM33.6826 35.4713C33.3348 35.4713 33.1748 34.8766 33.1748 33.6731C33.1748 29.4574 33.2374 25.5792 33.3765 22.0557C32.733 20.9809 31.1017 19.4052 28.4861 17.3322C26.9939 18.4 26.0756 19.0296 25.7382 19.2139C26.3678 19.847 26.7052 20.1635 26.7574 20.1635C26.82 21.7461 26.8548 23.0157 26.8548 23.9374V26.7757C26.8548 29.8609 26.7887 32.6748 26.653 35.2313V43.607C27.3 43.4122 27.9435 43.3148 28.5835 43.3148H28.7922C29.8635 43.3148 31.0843 43.5583 32.4548 44.0661C34.8374 45.2661 36.0826 45.8574 36.2217 45.8574H36.4235C36.8374 45.6452 37.0391 45.4783 37.0391 45.3879C37.3452 45.1896 37.6548 44.9983 37.9643 44.8105V37.12L33.6861 35.4679L33.6826 35.4713ZM37.7556 19.5026C39.9748 18.1774 41.1226 17.52 41.2096 17.52L41.213 17.5235C43.8078 19.3322 45.3348 20.9079 45.7939 22.2435V22.9044C45.7939 26.5774 45.6895 32.7513 45.4878 41.4296C43.2896 42.1009 41.1539 43.0122 39.0878 44.1635V37.0157C39.2861 32.4696 39.3765 29.0574 39.3765 26.7826C39.3765 22.4313 39.1435 20.2609 38.6669 20.2609C38.0548 19.7844 37.7556 19.5409 37.7556 19.5026Z" fill="#161302"/>
</svg>
