<svg width="300" height="60" viewBox="0 0 300 60" fill="none" xmlns="http://www.w3.org/2000/svg">
<g clip-path="url(#clip0_25_1243)">
<path d="M58.6751 15.0296C59.6226 15.4432 61.3596 16.9009 63.8663 19.4025L62.0307 21.4314C61.8333 31.1031 61.7346 36.6776 61.7346 38.1944C62.6425 39.199 63.3334 39.7111 63.7676 39.7111H63.965C64.2808 39.7111 65.7612 38.7065 68.4456 36.658C68.5838 31.9698 68.6825 26.9666 68.7417 21.6284C68.5048 21.2738 67.8732 20.5253 66.8073 19.4025C69.2352 16.8812 70.7155 15.5023 71.2879 15.2463H71.4853C72.0577 15.2463 72.9854 15.916 74.229 17.2752C75.1961 18.0237 75.9659 18.7328 76.5778 19.4025L74.6435 21.7269V22.1406C74.6435 25.7847 74.604 31.2213 74.5448 38.4899C74.5448 38.7853 75.0974 39.3763 76.1831 40.2233C76.8936 40.0263 77.3476 39.9278 77.5055 39.9278H77.7029C77.8016 39.9278 77.9398 40.0657 78.1174 40.3218V40.8339C76.6765 42.3113 74.9198 43.7492 72.8275 45.1084C72.8275 45.2463 72.6499 45.3054 72.3143 45.3054C71.4458 45.2069 69.847 43.7492 67.5377 40.9324L67.1232 40.6172C65.6625 41.4643 63.5703 43.0204 60.8069 45.2857H60.6095L55.7341 41.6218C54.5696 41.1491 53.9972 40.7748 53.9972 40.4991C53.9972 40.1642 54.3722 39.7505 55.1222 39.2778C55.5367 38.5096 55.7341 38.0565 55.7341 37.8595L55.9315 21.4117C55.4578 20.939 55.0828 20.7026 54.8064 20.7026H54.3919C54.1353 20.8208 53.8787 21.0572 53.5827 21.4117C53.3063 21.4117 53.0695 21.1163 52.8721 20.5056C52.8721 20.0132 53.5432 19.304 54.9051 18.3782C55.1025 18.004 56.3263 16.8812 58.5764 15.0099H58.6751V15.0296Z" fill="#FFDB00"/>
<path d="M85.4603 14.478C87.3551 15.4235 88.7763 16.9206 89.7435 18.9692H89.8422C90.3159 18.6343 92.1516 17.1373 95.3689 14.478C97.3427 16.4084 98.3297 18.1418 98.3297 19.6783V20.9981C98.3297 22.436 96.6914 24.1694 93.4346 26.1983H93.02L92.8227 26.0998C93.02 25.2922 93.1187 24.3861 93.1187 23.3421V22.7315C93.1187 21.3132 92.6845 20.2889 91.7963 19.6783C90.3751 20.8011 89.6645 21.4117 89.6448 21.5102L89.329 38.0368C89.783 38.7656 90.6712 39.5535 91.9937 40.3808C92.0529 40.5187 92.0923 40.6172 92.0923 40.696H92.191C92.2305 40.5778 92.6647 40.2233 93.5135 39.5732C94.0267 39.0414 94.4807 38.7656 94.8557 38.7656H95.0531C95.4281 38.7656 95.665 38.9035 95.7637 39.1793V39.2778C94.007 41.2279 91.9344 42.981 89.5264 44.5765C89.25 44.8523 88.9539 45.0887 88.6184 45.3053H88.5197C86.6446 43.7098 84.8681 42.4688 83.2101 41.6218C81.6705 41.0506 80.881 40.7157 80.8612 40.5975V40.499C80.8612 40.3415 81.4336 39.6914 82.5982 38.5489C82.9337 35.1215 83.1114 31.438 83.1114 27.5378C83.1114 22.5739 82.9535 20.0919 82.5982 20.0919C82.3811 19.698 82.1442 19.4222 81.8876 19.2646H81.6902L80.0519 20.3874C79.6769 20.3874 79.4006 20.151 79.2427 19.6783C79.2427 19.5207 80.7823 18.2403 83.8417 15.7978L85.48 14.478H85.4603Z" fill="#FFDB00"/>
<path d="M111.159 14.478C112.936 16.5857 115.226 17.6494 118.048 17.6494C118.759 17.6494 119.114 16.9403 119.114 15.5417H120.18V19.2252C117.456 20.6238 115.344 21.3132 113.804 21.3132C111.732 21.3132 109.6 20.6238 107.449 19.2252H106.896C106.185 19.3237 105.85 19.6783 105.85 20.2692V22.3769C106.738 23.7164 110.982 26.3362 118.601 30.2758C119.667 31.5365 120.2 32.7577 120.2 33.9396V39.1596C117.12 43.3749 114.12 45.4826 111.179 45.4826C107.982 43.3946 105.317 42.3309 103.205 42.3309H100.56C99.8493 42.4294 99.494 42.784 99.494 43.3552V43.9068L100.027 44.9705H98.9611C98.4677 44.9705 97.9347 44.4386 97.3623 43.3749C98.7243 39.8884 101.369 38.1353 105.317 38.1353H106.916C108.317 38.1353 111.337 39.1793 115.956 41.287V40.7748C115.956 40.4006 116.133 39.8687 116.469 39.1793C116.469 37.2095 111.771 34.2548 102.376 30.3546C101.172 28.3454 100.56 26.0604 100.56 23.4603C100.56 21.6284 103.383 18.8313 109.047 15.069C109.245 15.069 109.955 14.8917 111.199 14.5371L111.159 14.478Z" fill="#FFDB00"/>
<path d="M131.549 6.89433H131.648L131.747 7.40648V15.4432C132.398 15.5811 132.911 15.6599 133.306 15.6599H134.549C135.99 15.6599 136.721 15.7584 136.721 15.9554L136.819 16.566V18.2207C136.819 18.8313 136.503 19.1465 135.892 19.1465H135.793C135.043 19.1465 134.135 19.0874 133.108 18.9298C132.082 19.0677 131.569 19.4222 131.569 19.9541C131.569 20.1314 131.608 20.4071 131.668 20.7814C131.608 26.2377 131.569 30.8471 131.569 34.57C131.569 35.2003 131.529 36.4019 131.47 38.1747L134.253 40.243C134.391 40.243 134.905 39.8687 135.793 39.1005C135.911 39.0414 136.049 39.002 136.207 39.002H136.326C136.602 39.1399 136.8 39.3369 136.938 39.6127V40.1248C136.721 40.4203 134.628 42.0946 130.661 45.1872H130.444C128.332 43.4932 126.338 42.1734 124.463 41.2673C123.693 41.2673 123.259 40.9915 123.121 40.44V40.3415C123.121 40.1051 123.575 39.593 124.463 38.805C124.996 36.8549 125.292 33.9987 125.292 30.2561C125.233 28.5621 125.193 26.8681 125.193 25.2134V21.9239C125.193 21.3329 125.233 20.4859 125.292 19.3434C124.996 19.1465 124.285 19.0086 123.121 18.9298C122.785 18.654 122.608 18.4964 122.608 18.4176V18.3192C123.772 16.2509 126.772 12.4492 131.589 6.87463L131.549 6.89433Z" fill="#FFDB00"/>
<path d="M207.423 14.9113C209.516 15.9553 213.088 18.1812 218.181 21.6087H218.378V21.8056C218.378 22.2587 217.865 22.8299 216.839 23.5588C216.839 23.6178 216.799 23.736 216.72 23.8739C216.799 31.044 216.858 35.8109 216.937 38.214C218.003 39.1398 218.931 39.6126 219.74 39.652H220.668L220.885 39.5535V40.4793C219.562 42.0354 218.398 42.9612 217.352 43.2567C216.345 44.5765 215.556 45.2265 214.983 45.2265C214.667 45.2265 213.128 44.1037 210.325 41.8188C209.673 41.8188 208.292 42.7446 206.2 44.6159C205.371 45.1674 204.838 45.4432 204.542 45.4432H203.397C203.14 45.4432 201.995 44.7341 199.982 43.2764C198.442 42.4688 197.238 41.9566 196.35 41.7203V41.5036C196.35 41.1293 196.765 40.5778 197.594 39.849C197.811 38.3519 197.949 36.1261 198.008 33.132L197.692 21.0571C198.541 20.5253 200.495 19.4813 203.594 17.9645C205.41 16.566 206.654 15.522 207.325 14.8719H207.423V14.9113ZM204.226 21.4117L204.423 38.2337C206.496 39.6717 207.7 40.4005 208.035 40.4005C209.535 39.4944 210.364 39.061 210.522 39.061V25.1346C208.963 23.6375 207.285 22.3375 205.449 21.2147L205.134 20.8995L204.206 21.4117H204.226Z" fill="#FFDB00"/>
<path d="M235.195 14.7932C235.787 14.7932 238.491 16.369 243.367 19.5404C244.137 19.7965 244.512 20.1905 244.512 20.6829C244.512 21.0178 243.998 21.6481 242.952 22.5345V23.4603C242.952 25.0756 242.873 28.2863 242.755 33.0532C242.755 36.9928 243.525 40.1051 245.025 42.4492C245.301 43.0795 245.439 43.6704 245.439 44.2023V45.9554C245.439 48.0434 243.465 50.348 239.538 52.8694C237.287 53.9725 235.254 54.5043 233.438 54.5043H231.484C227.991 54.5043 224.754 53.027 221.773 50.0723C221.694 49.9541 221.674 49.8162 221.674 49.6586C224.655 47.1964 226.49 45.9554 227.142 45.9554C227.635 46.2312 228.208 47.0979 228.8 48.5358C230.517 50.4465 232.057 51.4117 233.438 51.4117C235.886 51.4117 237.504 50.8602 238.314 49.7571C238.728 49.1268 238.926 48.5752 238.926 48.1222V47.1964C238.926 46.2509 238.235 44.4387 236.873 41.7203C235.531 42.0946 233.28 43.2371 230.142 45.2266H229.826C229.728 45.0493 227.438 43.6113 222.997 40.893V40.7945C222.997 40.7945 223.332 40.3021 224.023 39.4551V33.2699C224.023 30.3546 223.984 26.3362 223.924 21.2148C226.846 19.9541 230.596 17.8267 235.195 14.8129V14.7932ZM230.339 21.9239V36.067C230.339 37.0913 230.616 37.7216 231.168 37.9383L234.169 39.8884C234.485 40.0263 234.82 40.0854 235.195 40.0854C235.55 40.0854 236.064 39.7702 236.754 39.1596C236.478 31.3789 236.34 26.4347 236.34 24.3073C236.34 23.677 236.103 23.283 235.61 23.1648C233.675 21.6481 232.649 20.8996 232.511 20.8996C232.234 20.8405 231.997 20.8011 231.78 20.8011C231.287 20.8011 230.793 21.1754 230.339 21.9239Z" fill="#FFDB00"/>
<path d="M259.059 14.6749C263.204 19.107 265.967 21.9632 267.329 23.2435V23.7557C265.178 25.9422 261.941 28.7984 257.618 32.3243C257.618 32.3834 257.026 32.9349 255.842 33.9592L255.94 34.6881C255.94 35.0426 255.881 36.0078 255.743 37.564C255.743 38.9822 256.355 39.8489 257.618 40.1444C258.21 40.4596 259 40.7944 259.987 41.1884C260.224 41.1884 261.447 40.4202 263.697 38.9231C263.974 38.7852 264.349 38.7261 264.842 38.7261C265.217 38.7261 265.671 39.0413 266.184 39.6519C263.48 42.0748 260.559 44.2022 257.401 46.0538L250.571 42.9612C248.854 42.5869 248.005 42.3703 247.986 42.2324L247.887 41.7202C247.887 41.5823 248.361 41.1096 249.328 40.2823C249.604 37.1503 249.742 34.1562 249.742 31.3C249.742 25.1148 249.525 22.0223 249.131 22.0223C247.887 21.8844 247.275 21.5101 247.275 20.8995L259.059 14.7143V14.6749ZM255.861 20.7616C255.802 21.5692 255.763 22.1602 255.763 22.5147V23.1451C255.763 25.5679 255.861 27.8726 256.078 30.059C258.901 27.518 260.46 26.1785 260.737 26.0407V25.9422C259.651 24.7209 258.033 22.9875 255.861 20.7813V20.7616Z" fill="#FFDB00"/>
<path d="M284.798 14.5962C285.745 14.5962 286.495 15.0098 287.068 15.8372C287.166 15.8372 288.666 17.3539 291.627 20.3677C291.272 23.283 291.114 25.7255 291.114 27.6953C291.114 29.5273 291.153 33.2896 291.213 38.9429C291.43 39.5732 291.844 40.0854 292.456 40.499C292.851 40.499 293.483 40.2035 294.312 39.5732H294.509C294.864 39.7505 295.022 40.0263 295.022 40.4005V40.7157C293.759 41.8582 291.686 43.5325 288.805 45.7781H288.607C286.416 44.2613 285.015 42.8234 284.363 41.4445V41.2278C284.719 38.1156 284.877 35.2594 284.877 32.6592C284.798 28.8181 284.778 25.4498 284.778 22.5542C284.206 22.1208 283.14 21.2147 281.58 19.8752C279.626 21.5299 278.56 22.3769 278.383 22.4557C278.304 24.2679 278.284 25.7255 278.284 26.7892V39.2777C279.607 40.5581 280.258 41.4051 280.258 41.8582L275.086 45.7781H274.869C273.685 45.0296 272.027 43.5916 269.915 41.4445L272.185 39.0611C272.126 33.4668 272.086 29.0939 272.086 25.9619V20.8995C272.086 20.7223 271.711 20.3086 270.941 19.6586H270.744C270.626 19.6586 270.112 19.8359 269.204 20.1707C268.79 20.0328 268.593 19.7571 268.593 19.3434C268.987 19.0873 270.882 17.61 274.277 14.9114H275.007C277.495 16.9993 278.738 18.4964 278.738 19.3434C280.12 18.6146 282.153 17.019 284.837 14.6159L284.798 14.5962Z" fill="#FFDB00"/>
<path d="M282.094 48.5161C282.291 48.5161 282.883 49.0677 283.85 50.151C284.008 50.3677 284.146 50.5844 284.225 50.8405C284.127 51.6678 284.087 52.4754 284.087 53.2436C284.087 53.677 284.127 55.1543 284.206 57.6757L284.581 58.0302H284.66C285.035 57.8726 285.212 57.7939 285.252 57.7939H285.331C285.331 57.7939 285.41 57.8333 285.449 57.912V58.0696C285.449 58.2666 285.015 58.6803 284.146 59.3303C284.127 59.3303 283.89 59.5273 283.456 59.9212H283.416C283.1 59.9212 282.626 59.547 281.995 58.8379C281.857 58.7197 281.778 58.6409 281.719 58.6409C281.758 58.0893 281.758 57.6954 281.758 57.4196V56.7499C281.679 53.9331 281.64 52.3572 281.64 52.0814V51.7466C281.501 51.5693 281.186 51.2935 280.712 50.8996C280.613 51.0375 280.139 51.4511 279.33 52.1208L279.409 57.7348C279.883 58.0696 280.1 58.3257 280.1 58.503C280.021 58.6409 279.449 59.153 278.363 60H278.245L276.369 58.6212C276.369 58.4439 276.587 58.109 276.981 57.6757C276.962 55.1149 276.922 53.1845 276.902 51.8845C276.902 51.786 276.606 51.4708 276.014 50.939C275.165 51.589 274.751 51.9633 274.751 52.0027C274.672 52.633 274.632 53.4209 274.632 54.3467C274.632 55.0952 274.632 56.218 274.672 57.7151C274.672 57.7545 274.85 57.9514 275.244 58.3257C275.323 58.4636 275.363 58.5621 275.363 58.6409L273.705 60.0197H273.665C273.369 60.0197 272.678 59.547 271.593 58.5621L272.284 57.6954C272.224 53.7755 272.224 51.6678 272.224 51.3329C272.047 50.9587 271.869 50.7617 271.691 50.7617H271.652C271.316 50.8799 271.139 50.9587 271.119 50.9587C271.001 50.9193 270.941 50.8208 270.941 50.6829V50.5253C272.363 49.3237 273.113 48.7328 273.192 48.7328H273.231C273.231 48.7328 273.744 49.3237 274.731 50.4859H274.771C275.54 49.9935 276.35 49.3828 277.218 48.6146H277.297C277.712 48.6934 277.909 48.8116 277.909 48.9495L279.33 50.5253C279.488 50.5253 280.396 49.8556 282.094 48.5358V48.5161Z" fill="#FFDB00"/>
<path d="M292.634 48.3783C293.818 48.9889 294.588 49.3829 294.924 49.5995L293.976 51.4708H293.937C293.72 51.4708 293.167 51.2148 292.298 50.7026C292.259 50.6829 292.2 50.6632 292.14 50.6632C291.864 51.0178 291.529 51.6875 291.134 52.6527C292.239 55.4301 293.167 57.2029 293.937 57.9712L294.174 58.0106C294.272 58.0106 294.549 57.9515 294.983 57.7742C295.141 57.9318 295.22 58.0697 295.22 58.2075L292.989 60.0001C292.259 59.744 291.608 59.0546 291.035 57.8924C290.344 56.3953 289.93 55.5877 289.811 55.4695C289.594 55.8635 288.844 57.3211 287.581 59.8622C287.541 59.8622 287.541 59.8622 287.541 59.9016C286.219 59.1924 285.568 58.8182 285.548 58.7788C285.568 58.4242 285.844 57.7742 286.357 56.8681C286.614 56.8681 287.107 57.1045 287.798 57.5575C288.272 56.8287 288.785 55.7847 289.377 54.4649C288.568 52.5542 287.995 51.4511 287.64 51.136C287.245 50.7026 286.93 50.4268 286.732 50.3284H286.456C286.14 50.5647 285.943 50.6829 285.844 50.6829C285.725 50.6829 285.647 50.6041 285.568 50.4465C286.258 49.6783 287.009 48.9889 287.877 48.4177L287.956 48.3783C288.41 48.5949 288.824 48.9101 289.219 49.3435C289.831 50.092 290.325 50.8405 290.68 51.589H290.719C290.917 51.2936 291.469 50.2693 292.377 48.5358C292.555 48.4177 292.654 48.3586 292.654 48.3389L292.634 48.3783Z" fill="#FFDB00"/>
<path d="M34.101 33.7624C33.6273 33.7624 33.4102 32.9548 33.4102 31.3395C33.4102 25.6665 33.4892 20.4663 33.6865 15.7387C32.8181 14.3008 30.6271 12.1734 27.1137 9.396C25.1004 10.8339 23.8766 11.681 23.4226 11.9173C24.2714 12.7643 24.7253 13.1977 24.7846 13.1977C24.8635 15.3251 24.9227 17.0388 24.9227 18.2798V22.1012C24.9227 26.2575 24.824 30.0198 24.6464 33.4669V44.7144C25.5149 44.4584 26.3834 44.3205 27.2518 44.3205H27.5282C28.9691 44.3205 30.6074 44.6553 32.4628 45.3251C35.6604 46.9403 37.3381 47.7282 37.5355 47.7282H37.8119C38.3645 47.4525 38.6409 47.2161 38.6409 47.0979C39.0554 46.8221 39.4699 46.5661 39.8844 46.3297V35.9882L34.1405 33.7624H34.101Z" fill="#FFDB00"/>
<path d="M16.7312 33.0138C16.5338 30.3349 16.4549 28.4439 16.4549 27.3014C16.4549 26.3953 16.5338 22.4951 16.7312 15.6205C16.7312 14.9508 16.0996 13.8083 14.8166 12.1931C11.619 9.82934 10.0202 7.80045 10.0202 6.10642V5.73216C10.0202 5.3973 10.2373 4.66847 10.711 3.56539C12.6257 2.26532 13.5928 1.43801 13.5928 1.02435C13.4349 0.650087 13.1586 0.354617 12.7638 0.137939H12.4875C11.1848 0.827368 10.0991 1.4577 9.21092 2.02894C5.73697 4.53059 4 6.81555 4 8.88384C4 9.65206 4.23686 10.6567 4.6711 11.937C7.15813 16.0342 8.4806 18.5752 8.63851 19.5601C8.36217 32.9351 8.08584 39.6127 7.82924 39.6127C6.09226 40.4794 5.22378 41.2476 5.22378 41.8976V42.0355C8.91485 42.0355 13.6915 43.8674 19.5933 47.4918L20.2841 47.1176C21.2513 46.3494 22.1988 45.7584 23.1462 45.3054V35.3185L16.7312 33.0138Z" fill="#FFDB00"/>
<path d="M44.2266 9.6521C44.1082 9.6521 42.5686 10.5385 39.5881 12.3113C39.5881 12.3704 39.9829 12.6856 40.8119 13.3356C41.4435 13.3356 41.7593 16.2509 41.7593 22.1012C41.7593 25.1544 41.6409 29.744 41.3646 35.8504V45.463C44.1477 43.9266 47.0098 42.6856 49.9705 41.7795C50.2468 30.1183 50.385 21.8254 50.385 16.8813V15.9948C49.7731 14.2023 47.7203 12.0749 44.2266 9.6521Z" fill="#FFDB00"/>
<path d="M164.69 33.6441C165.164 33.6441 165.381 32.8365 165.381 31.2212C165.381 25.5482 165.302 20.348 165.104 15.6205C165.973 14.1825 168.164 12.0551 171.677 9.27771C173.691 10.7157 174.914 11.5627 175.368 11.799C174.52 12.6461 174.066 13.0794 174.006 13.0794C173.927 15.2068 173.868 16.9205 173.868 18.1615V21.9829C173.868 26.1392 173.967 29.9015 174.144 33.3486V44.5962C173.276 44.3401 172.408 44.2022 171.539 44.2022H171.263C169.822 44.2022 168.184 44.5371 166.328 45.2068C163.13 46.822 161.453 47.6099 161.255 47.6099H160.979C160.426 47.3342 160.15 47.0978 160.15 46.9796C159.735 46.7038 159.321 46.4478 158.906 46.2114V35.87L164.65 33.6441H164.69Z" fill="#FFDB00"/>
<path d="M182.06 32.8759C182.257 30.197 182.336 28.306 182.336 27.1635C182.336 26.2574 182.257 22.3572 182.06 15.4826C182.06 14.8129 182.691 13.6704 183.974 12.0552C187.172 9.6914 188.771 7.66251 188.771 5.96848V5.59422C188.771 5.25936 188.554 4.53053 188.08 3.42745C186.165 2.12738 185.198 1.30007 185.198 0.886408C185.356 0.512147 185.632 0.216678 186.027 0H186.303C187.606 0.689429 188.692 1.31976 189.58 1.891C193.054 4.39265 194.771 6.67761 194.771 8.7459C194.771 9.51412 194.534 10.5187 194.1 11.7991C191.613 15.8963 190.291 18.4373 190.133 19.4222C190.409 32.7971 190.685 39.4747 190.942 39.4747C192.679 40.3414 193.547 41.1097 193.547 41.7597V41.8976C189.856 41.8976 185.08 43.7295 179.178 47.3539L178.487 46.9796C177.52 46.2114 176.572 45.6205 175.625 45.1674V35.1806L182.04 32.8759H182.06Z" fill="#FFDB00"/>
<path d="M154.564 9.51416C154.683 9.51416 156.222 10.4006 159.203 12.1734C159.203 12.2325 158.808 12.5476 157.979 13.1977C157.347 13.1977 157.031 16.113 157.031 21.9633C157.031 25.0165 157.15 29.6061 157.426 35.7125V45.3251C154.643 43.7886 151.781 42.5476 148.82 41.6415C148.544 29.9803 148.406 21.6875 148.406 16.7433V15.8569C149.018 14.0644 151.07 11.937 154.564 9.51416Z" fill="#FFDB00"/>
</g>
<defs>
<clipPath id="clip0_25_1243">
<rect width="291.219" height="60" fill="white" transform="translate(4)"/>
</clipPath>
</defs>
</svg>
